<svg
  xmlns="http://www.w3.org/2000/svg"
  viewBox="0 0 64 64"
  width="64"
  height="64"
  role="img"
  aria-label="Hold Rein"
>
  <path
    fill="#171717"
    d="M12 9a5 5 0 1 1-3.24 8.81C8.32 28.4 13.13 35.29 24 42.7v9.62C7.85 41.91 2.25 31.15 3.22 16.06A5 5 0 0 1 12 9Z"
  />
  <path
    fill="#171717"
    d="M52 9a5 5 0 1 0 3.24 8.81C55.68 28.4 50.87 35.29 40 42.7v9.62c16.15-10.41 21.75-21.17 20.78-36.26A5 5 0 0 0 52 9Z"
  />
  <path
    fill="#171717"
    d="M27.5 8.5a4.5 4.5 0 0 1 9 0v35.75a9 9 0 1 1-9 0V8.5Z"
  />
  <circle cx="32" cy="37" r="2.4" fill="#2457F5" />
</svg>
